<?xml version="1.0" encoding="utf-8"?>
<!-- Generator: Adobe Illustrator 16.0.0, SVG Export Plug-In . SVG Version: 6.00 Build 0)  -->
<!DOCTYPE svg PUBLIC "-//W3C//DTD SVG 1.1//EN" "http://www.w3.org/Graphics/SVG/1.1/DTD/svg11.dtd">
<svg version="1.1" id="Ebene_1" xmlns="http://www.w3.org/2000/svg" xmlns:xlink="http://www.w3.org/1999/xlink" x="0px" y="0px"
	 width="1041.71px" height="916px" viewBox="0 0 1041.71 916" enable-background="new 0 0 1041.71 916" xml:space="preserve">
<g>
	<path fill="#BE2126" d="M183.855,629.187l49.738-29.69l20.03,33.553l-5.87,3.504l-16.101-26.971l-15.402,9.193l13.934,23.342
		l-5.869,3.504l-13.935-23.342l-22.596,13.489L183.855,629.187z"/>
</g>
<g>
	<path fill="#BE2126" d="M221.579,687.356l43.581-38.158l16.919,19.322c3.401,3.885,5.595,7.18,6.582,9.887
		c0.987,2.709,1.019,5.533,0.095,8.477c-0.923,2.945-2.584,5.467-4.982,7.566c-3.092,2.707-6.574,3.988-10.447,3.844
		s-7.928-2.057-12.164-5.735c0.602,2.167,0.894,3.96,0.875,5.378c-0.072,3.037-0.606,6.325-1.606,9.861l-5.224,17.967l-6.351-7.254
		l4.018-13.707c1.14-3.975,1.927-7.113,2.361-9.419c0.432-2.304,0.549-4.131,0.35-5.479c-0.2-1.348-0.582-2.563-1.145-3.646
		c-0.434-0.774-1.301-1.905-2.603-3.392l-5.856-6.689l-19.353,16.944L221.579,687.356z M250.975,671.806l10.854,12.396
		c2.308,2.636,4.385,4.459,6.232,5.467c1.846,1.01,3.707,1.377,5.583,1.1c1.875-0.277,3.517-1.032,4.924-2.264
		c2.061-1.805,3.101-4.037,3.119-6.695c0.017-2.659-1.388-5.604-4.216-8.834l-12.078-13.794L250.975,671.806z"/>
</g>
<g>
	<path fill="#BE2126" d="M267.628,736.379l36.03-45.356l32.795,26.051l-4.252,5.353l-26.793-21.283l-11.035,13.892l25.092,19.933
		l-4.227,5.321l-25.092-19.932l-12.264,15.438l27.846,22.119l-4.252,5.354L267.628,736.379z"/>
</g>
<g>
	<path fill="#BE2126" d="M319.151,774.786l28.102-50.652l36.624,20.319l-3.316,5.978l-29.921-16.601l-8.607,15.514l28.021,15.546
		l-3.297,5.943l-28.021-15.547l-9.565,17.241l31.096,17.253l-3.316,5.977L319.151,774.786z"/>
</g>
<g>
</g>
<g>
</g>
<g>
</g>
<g>
	<path fill="#BE2126" d="M505.829,831.486l-1.169-57.914l25.678-0.519c5.161-0.104,9.097,0.337,11.804,1.323s4.892,2.78,6.55,5.381
		c1.66,2.603,2.522,5.495,2.587,8.682c0.083,4.109-1.178,7.6-3.78,10.471c-2.604,2.873-6.676,4.745-12.217,5.621
		c2.048,0.934,3.607,1.864,4.68,2.79c2.28,2.009,4.452,4.535,6.516,7.575l10.393,15.56l-9.64,0.194l-7.907-11.895
		c-2.309-3.431-4.207-6.054-5.691-7.868c-1.486-1.813-2.81-3.078-3.97-3.793c-1.16-0.714-2.336-1.204-3.527-1.47
		c-0.873-0.166-2.296-0.23-4.271-0.19l-8.889,0.18l0.52,25.718L505.829,831.486z M512.84,798.978l16.473-0.333
		c3.503-0.07,6.235-0.488,8.196-1.252c1.96-0.765,3.438-1.953,4.433-3.568c0.995-1.612,1.473-3.355,1.436-5.226
		c-0.056-2.738-1.094-4.971-3.119-6.694c-2.024-1.725-5.183-2.544-9.476-2.457l-18.329,0.37L512.84,798.978z"/>
</g>
<g>
	<path fill="#BE2126" d="M573.105,827.57l-10.789-56.912l41.149-7.801l1.273,6.717l-33.619,6.373l3.305,17.431l31.484-5.968
		l1.266,6.676l-31.484,5.969l3.672,19.372l34.939-6.624l1.273,6.717L573.105,827.57z"/>
</g>
<g>
	<path fill="#BE2126" d="M644.64,809.545l-17.797-47.89l-17.89,6.647l-2.381-6.408l43.039-15.993l2.381,6.408l-17.964,6.676
		l17.796,47.89L644.64,809.545z"/>
</g>
<g>
	<path fill="#BE2126" d="M696.181,719.835l6.607-3.886l16.967,28.848c2.952,5.018,4.727,9.336,5.328,12.955
		c0.6,3.621-0.036,7.227-1.91,10.82c-1.875,3.594-5.219,6.805-10.033,9.637c-4.678,2.751-8.977,4.194-12.899,4.332
		s-7.419-0.947-10.485-3.254c-3.068-2.305-6.158-6.104-9.27-11.394l-16.967-28.849l6.607-3.887l16.947,28.814
		c2.551,4.337,4.833,7.296,6.848,8.876c2.015,1.582,4.332,2.351,6.949,2.308c2.619-0.043,5.346-0.898,8.186-2.568
		c4.859-2.857,7.674-5.994,8.443-9.413c0.771-3.417-0.686-8.259-4.371-14.526L696.181,719.835z"/>
</g>
<g>
	<path fill="#BE2126" d="M747.741,754.142l-37.733-43.949l19.487-16.731c3.916-3.362,7.233-5.524,9.949-6.484
		c2.717-0.961,5.543-0.966,8.478-0.014s5.44,2.637,7.517,5.055c2.678,3.118,3.925,6.613,3.742,10.484
		c-0.182,3.872-2.133,7.908-5.852,12.107c2.173-0.582,3.969-0.856,5.385-0.823c3.037,0.101,6.32,0.667,9.846,1.702l17.915,5.397
		l-7.315,6.28l-13.666-4.15c-3.963-1.179-7.096-1.995-9.396-2.451c-2.301-0.454-4.125-0.589-5.475-0.402
		c-1.351,0.188-2.568,0.557-3.658,1.107c-0.778,0.428-1.918,1.284-3.417,2.571l-6.745,5.791l16.756,19.517L747.741,754.142z
		 M732.478,724.596l12.502-10.733c2.657-2.282,4.5-4.342,5.527-6.179c1.027-1.836,1.411-3.693,1.152-5.572
		c-0.258-1.878-0.998-3.527-2.216-4.945c-1.784-2.078-4.007-3.141-6.665-3.184s-5.617,1.334-8.875,4.131l-13.909,11.942
		L732.478,724.596z"/>
</g>
<g>
	<path fill="#BE2126" d="M798.92,706.99l-45.22-36.201l4.914-6.139l54.518,4.672l-35.504-28.423l4.593-5.737l45.221,36.201
		l-4.914,6.139l-54.548-4.697l35.534,28.447L798.92,706.99z"/>
</g>
<g>
	<path fill="#BE2126" d="M823.796,643.12l2.859-6.673c2.715,1.068,5.187,1.488,7.415,1.263c2.227-0.225,4.469-1.228,6.723-3.009
		c2.255-1.779,4.159-4.121,5.715-7.023c1.381-2.576,2.218-5.058,2.51-7.442c0.292-2.383,0.028-4.414-0.79-6.094
		c-0.818-1.679-2.018-2.941-3.596-3.788c-1.603-0.859-3.249-1.144-4.943-0.856c-1.693,0.288-3.519,1.282-5.477,2.982
		c-1.268,1.084-3.722,3.669-7.362,7.755c-3.64,4.086-6.463,6.802-8.469,8.147c-2.583,1.753-5.142,2.721-7.675,2.901
		c-2.533,0.183-4.973-0.355-7.317-1.612c-2.577-1.382-4.593-3.404-6.051-6.067c-1.455-2.664-2.011-5.711-1.667-9.143
		c0.345-3.432,1.439-6.865,3.281-10.302c2.027-3.784,4.426-6.795,7.194-9.032s5.753-3.498,8.955-3.785
		c3.202-0.285,6.331,0.315,9.389,1.805l-2.984,6.739c-3.413-1.382-6.482-1.51-9.208-0.386c-2.725,1.125-5.139,3.649-7.241,7.572
		c-2.19,4.087-3.038,7.467-2.543,10.138c0.496,2.671,1.801,4.573,3.913,5.706c1.834,0.982,3.697,1.13,5.592,0.44
		c1.881-0.664,4.914-3.409,9.099-8.234s7.29-8.01,9.313-9.556c2.963-2.237,5.874-3.501,8.734-3.791
		c2.861-0.29,5.661,0.299,8.399,1.768c2.717,1.455,4.859,3.605,6.429,6.449s2.24,6.08,2.014,9.709
		c-0.227,3.63-1.316,7.268-3.271,10.912c-2.477,4.62-5.227,8.131-8.245,10.531c-3.021,2.4-6.359,3.764-10.017,4.091
		C830.817,645.561,827.259,644.856,823.796,643.12z"/>
</g>
<g>
	<defs>
		<rect id="SVGID_1_" width="1041.713" height="916"/>
	</defs>
	<clipPath id="SVGID_2_">
		<use xlink:href="#SVGID_1_"  overflow="visible"/>
	</clipPath>
	<path clip-path="url(#SVGID_2_)" fill="#BE2126" d="M18,536.572C18,553.858,32.141,568,49.426,568h45.349
		c48.968,189.561,221.434,330,426.079,330c204.654,0,377.114-140.439,426.075-330h45.354c17.286,0,31.429-14.142,31.429-31.428
		V379.429c0-17.288-14.143-31.428-31.429-31.428H946.93C897.969,158.442,725.509,18,520.854,18
		C316.209,18,143.744,158.442,94.775,348.001H49.426c-17.286,0-31.426,14.14-31.426,31.428 M520.854,33.714
		c195.908,0,361.16,133.503,409.738,314.287H764.204c-42.009-92.569-135.252-157.145-243.35-157.145
		c-108.096,0-201.339,64.576-243.348,157.145H111.119C159.706,167.217,324.941,33.714,520.854,33.714 M294.816,348.001
		c40.875-83.66,126.829-141.428,226.038-141.428c99.212,0,185.158,57.768,226.04,141.428H294.816z M746.895,568
		c-40.882,83.659-126.834,141.431-226.04,141.431c-99.209,0-185.163-57.771-226.038-141.431H746.895z M520.854,882.286
		c-195.904,0-361.149-133.503-409.736-314.286h166.388c42.009,92.567,135.252,157.144,243.348,157.144
		c108.098,0,201.341-64.576,243.35-157.144h166.389C882.007,748.783,716.763,882.286,520.854,882.286"/>
	<polygon clip-path="url(#SVGID_2_)" fill="#BE2126" points="532.596,257.413 520.854,230.143 509.124,257.413 479.592,260.145 
		501.872,279.74 495.353,308.714 520.854,293.553 546.359,308.714 539.839,279.74 562.119,260.145 	"/>
	<polygon clip-path="url(#SVGID_2_)" fill="#BE2126" points="622.814,276.733 614.588,257.642 606.371,276.733 585.692,278.646 
		601.284,292.363 596.727,312.644 614.588,302.024 632.435,312.644 627.878,292.363 643.467,278.646 	"/>
	<polygon clip-path="url(#SVGID_2_)" fill="#BE2126" points="435.354,276.733 427.123,257.642 418.915,276.733 398.243,278.646 
		413.84,292.363 409.275,312.644 427.123,302.024 444.983,312.644 440.426,292.363 456.02,278.646 	"/>
	<polygon clip-path="url(#SVGID_2_)" fill="#BE2126" points="596.728,654.428 614.588,643.81 632.436,654.428 627.878,634.147 
		643.467,620.432 622.814,618.52 614.588,599.429 606.371,618.52 585.692,620.432 601.284,634.147 	"/>
	<polygon clip-path="url(#SVGID_2_)" fill="#BE2126" points="409.275,654.428 427.123,643.81 444.983,654.428 440.426,634.147 
		456.02,620.432 435.354,618.52 427.123,599.429 418.915,618.52 398.242,620.432 413.84,634.147 	"/>
	<polygon clip-path="url(#SVGID_2_)" fill="#BE2126" points="495.353,678 520.854,662.84 546.359,678 539.839,649.027 
		562.119,629.431 532.596,626.698 520.854,599.429 509.124,626.698 479.591,629.431 501.873,649.027 	"/>
</g>
<g>
	<path fill="#FFFFFF" d="M102.818,502.403v-78.74h53.12v9.292h-42.7v24.385h36.953v9.292h-36.953v35.771H102.818z"/>
	<path fill="#FFFFFF" d="M169.634,502.403v-78.74h34.912c7.018,0,12.354,0.708,16.006,2.122c3.652,1.415,6.57,3.913,8.755,7.493
		c2.184,3.581,3.276,7.538,3.276,11.87c0,5.586-1.809,10.295-5.425,14.126c-3.617,3.832-9.203,6.267-16.758,7.305
		c2.757,1.325,4.852,2.632,6.284,3.921c3.043,2.793,5.926,6.284,8.647,10.474l13.696,21.431h-13.105l-10.42-16.382
		c-3.044-4.727-5.551-8.343-7.52-10.85c-1.97-2.506-3.733-4.261-5.291-5.264c-1.558-1.002-3.142-1.7-4.753-2.095
		c-1.182-0.25-3.115-0.376-5.801-0.376h-12.085v34.966H169.634z M180.054,458.414h22.397c4.762,0,8.486-0.492,11.172-1.477
		c2.686-0.984,4.727-2.56,6.123-4.727c1.396-2.166,2.095-4.52,2.095-7.063c0-3.724-1.352-6.785-4.055-9.185
		c-2.704-2.398-6.974-3.599-12.81-3.599h-24.922V458.414z"/>
	<path fill="#FFFFFF" d="M249.126,502.403v-78.74h56.934v9.292h-46.514v24.116h43.56v9.238h-43.56v26.802h48.34v9.292H249.126z"/>
	<path fill="#FFFFFF" d="M322.496,502.403v-78.74h56.934v9.292h-46.514v24.116h43.56v9.238h-43.56v26.802h48.34v9.292H322.496z"/>
	<path fill="#FFFFFF" d="M422.667,477.105l9.829-0.859c0.465,3.939,1.548,7.171,3.25,9.694c1.7,2.525,4.341,4.566,7.922,6.123
		c3.58,1.559,7.608,2.337,12.085,2.337c3.975,0,7.483-0.591,10.527-1.772c3.043-1.182,5.308-2.802,6.794-4.861
		c1.485-2.059,2.229-4.305,2.229-6.74c0-2.471-0.717-4.628-2.148-6.473c-1.433-1.844-3.796-3.392-7.09-4.646
		c-2.113-0.823-6.786-2.104-14.019-3.841c-7.233-1.736-12.3-3.374-15.2-4.914c-3.76-1.969-6.562-4.413-8.406-7.332
		c-1.845-2.918-2.766-6.185-2.766-9.802c0-3.975,1.128-7.689,3.384-11.145c2.256-3.455,5.55-6.078,9.883-7.869
		c4.332-1.79,9.148-2.686,14.448-2.686c5.836,0,10.984,0.94,15.442,2.82s7.886,4.646,10.286,8.298
		c2.398,3.652,3.688,7.788,3.867,12.407l-9.99,0.752c-0.537-4.977-2.355-8.736-5.452-11.279c-3.098-2.542-7.672-3.813-13.723-3.813
		c-6.303,0-10.895,1.155-13.777,3.464c-2.883,2.31-4.324,5.094-4.324,8.352c0,2.829,1.021,5.156,3.062,6.982
		c2.005,1.826,7.242,3.698,15.71,5.613c8.468,1.916,14.278,3.59,17.429,5.022c4.583,2.113,7.967,4.789,10.151,8.029
		c2.184,3.241,3.276,6.975,3.276,11.199c0,4.189-1.2,8.137-3.599,11.844c-2.399,3.705-5.846,6.588-10.339,8.646
		c-4.494,2.06-9.552,3.089-15.173,3.089c-7.126,0-13.097-1.039-17.913-3.115c-4.816-2.076-8.594-5.201-11.333-9.372
		C424.251,487.087,422.809,482.369,422.667,477.105z"/>
	<path fill="#FFFFFF" d="M499.903,502.403v-78.74h10.42v32.334h40.927v-32.334h10.42v78.74h-10.42v-37.114h-40.927v37.114H499.903z"
		/>
	<path fill="#FFFFFF" d="M580.792,502.403v-78.74h10.42v78.74H580.792z"/>
	<path fill="#FFFFFF" d="M609.58,502.403v-78.74h29.702c5.228,0,9.22,0.251,11.978,0.752c3.867,0.645,7.107,1.872,9.722,3.679
		c2.613,1.809,4.718,4.342,6.312,7.6c1.593,3.259,2.39,6.84,2.39,10.742c0,6.696-2.131,12.362-6.392,17
		c-4.262,4.637-11.96,6.955-23.096,6.955H620v32.012H609.58z M620,461.1h20.356c6.731,0,11.512-1.253,14.341-3.76
		c2.828-2.506,4.243-6.033,4.243-10.581c0-3.294-0.833-6.114-2.497-8.459c-1.666-2.345-3.859-3.894-6.58-4.646
		c-1.755-0.465-4.995-0.698-9.722-0.698H620V461.1z"/>
	<path fill="#FFFFFF" d="M682.949,502.403v-78.74h29.702c5.228,0,9.22,0.251,11.978,0.752c3.867,0.645,7.107,1.872,9.722,3.679
		c2.613,1.809,4.718,4.342,6.312,7.6c1.593,3.259,2.39,6.84,2.39,10.742c0,6.696-2.131,12.362-6.392,17
		c-4.262,4.637-11.96,6.955-23.096,6.955h-20.195v32.012H682.949z M693.369,461.1h20.356c6.731,0,11.512-1.253,14.341-3.76
		c2.828-2.506,4.243-6.033,4.243-10.581c0-3.294-0.833-6.114-2.497-8.459c-1.666-2.345-3.859-3.894-6.58-4.646
		c-1.755-0.465-4.995-0.698-9.722-0.698h-20.142V461.1z"/>
	<path fill="#FFFFFF" d="M758.091,502.403v-78.74h10.42v78.74H758.091z"/>
	<path fill="#FFFFFF" d="M786.773,502.403v-78.74h10.688l41.357,61.821v-61.821h9.99v78.74h-10.688l-41.357-61.875v61.875H786.773z"
		/>
	<path fill="#FFFFFF" d="M903.164,471.52v-9.238l33.354-0.054v29.219c-5.121,4.082-10.402,7.152-15.845,9.211
		c-5.443,2.06-11.029,3.089-16.758,3.089c-7.734,0-14.762-1.656-21.082-4.968c-6.319-3.313-11.091-8.102-14.313-14.368
		c-3.223-6.266-4.834-13.267-4.834-21.001c0-7.662,1.603-14.815,4.808-21.458c3.204-6.642,7.814-11.575,13.83-14.797
		s12.944-4.834,20.786-4.834c5.693,0,10.841,0.922,15.442,2.766c4.601,1.845,8.208,4.414,10.822,7.708
		c2.613,3.295,4.601,7.592,5.962,12.891l-9.399,2.578c-1.182-4.01-2.65-7.161-4.404-9.453c-1.755-2.291-4.262-4.126-7.52-5.505
		c-3.259-1.378-6.875-2.068-10.85-2.068c-4.763,0-8.881,0.725-12.354,2.175c-3.474,1.45-6.275,3.357-8.406,5.72
		c-2.13,2.363-3.786,4.96-4.968,7.788c-2.006,4.87-3.008,10.151-3.008,15.845c0,7.019,1.208,12.891,3.626,17.617
		c2.416,4.727,5.935,8.236,10.554,10.527c4.619,2.292,9.524,3.438,14.717,3.438c4.512,0,8.916-0.868,13.213-2.605
		c4.297-1.736,7.555-3.589,9.775-5.559V471.52H903.164z"/>
</g>
<g>
	<path fill="#BE2126" d="M235.515,331.864l-51.664-26.196l17.673-34.853l6.097,3.091l-14.206,28.016l16,8.113l12.294-24.246
		l6.097,3.091l-12.294,24.246l23.471,11.901L235.515,331.864z"/>
</g>
<g>
	<path fill="#BE2126" d="M264.458,278.875l-45.801-35.463l15.723-20.307c3.161-4.082,5.977-6.867,8.443-8.355
		c2.469-1.487,5.234-2.06,8.301-1.718c3.066,0.343,5.861,1.489,8.381,3.44c3.249,2.516,5.174,5.688,5.773,9.517
		c0.6,3.83-0.5,8.175-3.299,13.038c2.013-1.007,3.716-1.637,5.111-1.889c2.994-0.512,6.324-0.617,9.986-0.313l18.635,1.685
		l-5.902,7.623l-14.223-1.317c-4.119-0.358-7.352-0.529-9.697-0.512c-2.345,0.017-4.16,0.251-5.444,0.706
		c-1.284,0.455-2.403,1.062-3.358,1.822c-0.678,0.575-1.623,1.643-2.832,3.205l-5.443,7.03l20.339,15.748L264.458,278.875z
		 M243.563,253.001l10.087-13.028c2.146-2.77,3.536-5.158,4.173-7.164c0.637-2.005,0.639-3.902,0.008-5.69
		c-0.631-1.789-1.686-3.254-3.164-4.399c-2.166-1.677-4.556-2.27-7.169-1.778c-2.613,0.492-5.235,2.436-7.862,5.831l-11.225,14.497
		L243.563,253.001z"/>
</g>
<g>
	<path fill="#BE2126" d="M301.469,233.729l-38.337-43.424l31.398-27.72l4.523,5.124l-25.651,22.646l11.741,13.3l24.022-21.208
		l4.498,5.095l-24.022,21.208l13.05,14.781l26.658-23.536l4.524,5.125L301.469,233.729z"/>
</g>
<g>
	<path fill="#BE2126" d="M344.432,197.614l-30.344-49.341l35.676-21.94l3.581,5.822l-29.147,17.925l9.295,15.112l27.295-16.787
		l3.561,5.789l-27.296,16.787l10.329,16.795l30.291-18.629l3.581,5.823L344.432,197.614z"/>
</g>
<g>
</g>
<g>
	<path fill="#BE2126" d="M454.82,133.595l6.799-2.542c1.104,2.701,2.507,4.779,4.209,6.234c1.702,1.455,3.976,2.383,6.82,2.783
		c2.844,0.4,5.853,0.161,9.025-0.719c2.818-0.782,5.189-1.891,7.115-3.327s3.212-3.029,3.861-4.782
		c0.648-1.751,0.733-3.49,0.255-5.217c-0.485-1.751-1.418-3.139-2.795-4.165c-1.378-1.026-3.358-1.659-5.94-1.9
		c-1.659-0.168-5.224-0.156-10.691,0.034c-5.47,0.191-9.383,0.025-11.742-0.497c-3.052-0.656-5.52-1.838-7.4-3.545
		c-1.881-1.706-3.176-3.84-3.888-6.404c-0.781-2.818-0.712-5.673,0.208-8.566c0.92-2.893,2.74-5.399,5.459-7.521
		c2.72-2.121,5.958-3.702,9.715-4.744c4.138-1.147,7.971-1.493,11.502-1.037c3.529,0.457,6.503,1.744,8.922,3.861
		c2.418,2.117,4.145,4.796,5.181,8.036l-6.935,2.497c-1.359-3.422-3.387-5.73-6.082-6.924c-2.695-1.193-6.188-1.195-10.478-0.005
		c-4.468,1.239-7.497,2.96-9.085,5.164c-1.59,2.204-2.064,4.461-1.424,6.771c0.557,2.006,1.737,3.455,3.543,4.348
		c1.78,0.9,5.86,1.198,12.24,0.891c6.38-0.306,10.827-0.262,13.343,0.135c3.664,0.597,6.589,1.828,8.774,3.696
		s3.693,4.3,4.524,7.294c0.823,2.97,0.749,6.005-0.223,9.104c-0.973,3.099-2.85,5.819-5.63,8.162
		c-2.781,2.343-6.164,4.067-10.149,5.172c-5.052,1.401-9.488,1.838-13.311,1.313s-7.114-1.998-9.876-4.417
		C457.906,140.36,455.956,137.299,454.82,133.595z"/>
</g>
<g>
</g>
<g>
	<path fill="#BE2126" d="M514.016,141.696l-0.939-57.917l7.664-0.124l0.386,23.783l30.105-0.488l-0.386-23.783l7.665-0.125
		l0.939,57.917l-7.665,0.125l-0.443-27.3l-30.104,0.488l0.442,27.3L514.016,141.696z"/>
</g>
<g>
	<path fill="#BE2126" d="M589.274,147.487l10.012-57.054l7.55,1.324l-10.012,57.054L589.274,147.487z"/>
</g>
<g>
	<path fill="#BE2126" d="M623.961,158.317l19.833-54.425l20.529,7.481c3.613,1.317,6.31,2.495,8.089,3.536
		c2.512,1.42,4.441,3.084,5.794,4.992c1.351,1.908,2.166,4.189,2.447,6.842c0.28,2.654-0.071,5.33-1.054,8.027
		c-1.687,4.628-4.587,8.009-8.699,10.141c-4.114,2.132-10.019,1.795-17.716-1.01l-13.959-5.086l-8.063,22.125L623.961,158.317z
		 M641.566,132.393l14.07,5.128c4.653,1.695,8.272,2.033,10.859,1.013c2.585-1.02,4.451-3.101,5.598-6.244
		c0.829-2.277,0.964-4.436,0.404-6.477c-0.56-2.04-1.687-3.663-3.378-4.869c-1.096-0.763-3.275-1.74-6.543-2.931l-13.922-5.073
		L641.566,132.393z"/>
</g>
<g>
	<path fill="#BE2126" d="M681.175,184.951l29.437-49.888l18.819,11.104c3.312,1.954,5.747,3.605,7.307,4.953
		c2.21,1.855,3.805,3.844,4.784,5.967c0.979,2.122,1.365,4.514,1.158,7.174c-0.209,2.66-1.044,5.227-2.503,7.699
		c-2.503,4.242-5.972,7.037-10.403,8.381c-4.435,1.346-10.179-0.063-17.234-4.227l-12.795-7.551l-11.968,20.282L681.175,184.951z
		 M703.218,162.678l12.897,7.609c4.266,2.518,7.762,3.511,10.492,2.98c2.729-0.531,4.943-2.236,6.644-5.118
		c1.231-2.087,1.758-4.185,1.58-6.293s-0.989-3.91-2.432-5.403c-0.938-0.951-2.903-2.311-5.898-4.077l-12.762-7.53L703.218,162.678z
		"/>
</g>
<g>
	<path fill="#BE2126" d="M733.819,223.652l38.149-43.588l5.768,5.048l-38.149,43.589L733.819,223.652z"/>
</g>
<g>
	<path fill="#BE2126" d="M759.275,245.886l45.867-35.377l4.803,6.227l-17.432,51.866l36.012-27.776l4.489,5.82l-45.866,35.377
		l-4.803-6.227l17.461-51.891l-36.043,27.801L759.275,245.886z"/>
</g>
<g>
	<path fill="#BE2126" d="M828.29,310.446l6.073-3.052l11.051,21.908l-19.207,9.649c-4.375-2.019-8.137-4.476-11.287-7.373
		c-3.151-2.898-5.674-6.23-7.565-9.996c-2.554-5.084-3.786-10.251-3.696-15.498c0.09-5.25,1.662-9.967,4.717-14.154
		c3.055-4.188,7.124-7.561,12.209-10.114c5.036-2.53,10.268-3.84,15.692-3.927s10.19,1.314,14.295,4.205
		c4.105,2.89,7.452,6.912,10.042,12.066c1.881,3.742,2.975,7.432,3.282,11.064c0.308,3.634-0.19,6.854-1.492,9.66
		c-1.303,2.806-3.471,5.532-6.505,8.176l-4.799-5.327c2.246-2.101,3.832-4.106,4.76-6.017c0.926-1.91,1.305-4.164,1.135-6.762
		s-0.911-5.202-2.224-7.814c-1.573-3.131-3.409-5.599-5.51-7.402c-2.101-1.805-4.279-3.017-6.536-3.636
		c-2.257-0.62-4.512-0.852-6.761-0.694c-3.864,0.29-7.666,1.375-11.409,3.256c-4.613,2.317-8.073,5.052-10.383,8.202
		c-2.309,3.149-3.454,6.621-3.435,10.414c0.019,3.794,0.886,7.396,2.601,10.81c1.49,2.965,3.516,5.574,6.076,7.825
		c2.562,2.251,4.855,3.78,6.883,4.59l9.639-4.843L828.29,310.446z"/>
</g>
</svg>
